<mxfile host="app.diagrams.net" modified="2022-09-20T10:24:29.901Z" agent="5.0 (X11; Linux x86_64) AppleWebKit/537.36 (KHTML, like Gecko) Chrome/105.0.0.0 Safari/537.36" etag="XxqyevVUE6yYTCeGdJAp" version="20.3.3" type="github">
  <diagram name="Page-1" id="ad52d381-51e7-2e0d-a935-2d0ddd2fd229">
    <mxGraphModel dx="1613" dy="982" grid="1" gridSize="10" guides="1" tooltips="1" connect="1" arrows="1" fold="1" page="1" pageScale="1" pageWidth="1100" pageHeight="850" background="none" math="0" shadow="0">
      <root>
        <mxCell id="0" />
        <mxCell id="1" parent="0" />
        <mxCell id="2c924340bb9dbf6c-1" value="&lt;span&gt;add components&lt;/span&gt;" style="whiteSpace=wrap;html=1;rounded=1;shadow=1;comic=0;labelBackgroundColor=none;strokeWidth=2;fontFamily=Verdana;fontSize=12;align=center;arcSize=50;" parent="1" vertex="1">
          <mxGeometry x="140" y="70" width="100" height="20" as="geometry" />
        </mxCell>
        <mxCell id="2c924340bb9dbf6c-2" value="Projects" style="ellipse;whiteSpace=wrap;html=1;rounded=1;shadow=1;comic=0;labelBackgroundColor=none;strokeWidth=2;fontFamily=Verdana;fontSize=12;align=center;" parent="1" vertex="1">
          <mxGeometry x="260" y="110" width="120" height="80" as="geometry" />
        </mxCell>
        <mxCell id="2c924340bb9dbf6c-3" value="&lt;span&gt;Data Ops&lt;/span&gt;" style="ellipse;whiteSpace=wrap;html=1;rounded=1;shadow=1;comic=0;labelBackgroundColor=none;strokeWidth=2;fontFamily=Verdana;fontSize=12;align=center;" parent="1" vertex="1">
          <mxGeometry x="650" y="110" width="120" height="80" as="geometry" />
        </mxCell>
        <mxCell id="2c924340bb9dbf6c-4" value="User" style="ellipse;whiteSpace=wrap;html=1;rounded=1;shadow=1;comic=0;labelBackgroundColor=none;strokeWidth=2;fontFamily=Verdana;fontSize=12;align=center;" parent="1" vertex="1">
          <mxGeometry x="530" y="260" width="120" height="120" as="geometry" />
        </mxCell>
        <mxCell id="2c924340bb9dbf6c-5" value="&lt;span&gt;Build&amp;nbsp; Component&lt;/span&gt;" style="ellipse;whiteSpace=wrap;html=1;rounded=1;shadow=1;comic=0;labelBackgroundColor=none;strokeWidth=2;fontFamily=Verdana;fontSize=12;align=center;" parent="1" vertex="1">
          <mxGeometry x="630" y="420" width="120" height="80" as="geometry" />
        </mxCell>
        <mxCell id="2c924340bb9dbf6c-6" value="&lt;span&gt;Monitor Model&lt;/span&gt;" style="ellipse;whiteSpace=wrap;html=1;rounded=1;shadow=1;comic=0;labelBackgroundColor=none;strokeWidth=2;fontFamily=Verdana;fontSize=12;align=center;" parent="1" vertex="1">
          <mxGeometry x="810" y="410" width="120" height="80" as="geometry" />
        </mxCell>
        <mxCell id="2c924340bb9dbf6c-7" value="&lt;span&gt;Deploy component /model&lt;/span&gt;" style="ellipse;whiteSpace=wrap;html=1;rounded=1;shadow=1;comic=0;labelBackgroundColor=none;strokeWidth=2;fontFamily=Verdana;fontSize=12;align=center;" parent="1" vertex="1">
          <mxGeometry x="440" y="480" width="120" height="80" as="geometry" />
        </mxCell>
        <mxCell id="2c924340bb9dbf6c-8" value="&lt;span&gt;add jobs&lt;/span&gt;" style="whiteSpace=wrap;html=1;rounded=1;shadow=1;comic=0;labelBackgroundColor=none;strokeWidth=2;fontFamily=Verdana;fontSize=12;align=center;arcSize=50;" parent="1" vertex="1">
          <mxGeometry x="110" y="140" width="100" height="20" as="geometry" />
        </mxCell>
        <mxCell id="2c924340bb9dbf6c-9" value="code" style="whiteSpace=wrap;html=1;rounded=1;shadow=1;comic=0;labelBackgroundColor=none;strokeWidth=2;fontFamily=Verdana;fontSize=12;align=center;arcSize=50;" parent="1" vertex="1">
          <mxGeometry x="110" y="210" width="100" height="20" as="geometry" />
        </mxCell>
        <mxCell id="2c924340bb9dbf6c-10" value="PV_storage_space" style="whiteSpace=wrap;html=1;rounded=1;shadow=1;comic=0;labelBackgroundColor=none;strokeWidth=2;fontFamily=Verdana;fontSize=12;align=center;arcSize=50;" parent="1" vertex="1">
          <mxGeometry x="320" y="40" width="100" height="20" as="geometry" />
        </mxCell>
        <mxCell id="2c924340bb9dbf6c-11" value="&lt;span&gt;hdfs&lt;/span&gt;" style="whiteSpace=wrap;html=1;rounded=1;shadow=1;comic=0;labelBackgroundColor=none;strokeWidth=2;fontFamily=Verdana;fontSize=12;align=center;arcSize=50;" parent="1" vertex="1">
          <mxGeometry x="570" y="60" width="100" height="20" as="geometry" />
        </mxCell>
        <mxCell id="2c924340bb9dbf6c-12" value="&lt;span&gt;model_components&lt;/span&gt;" style="whiteSpace=wrap;html=1;rounded=1;shadow=1;comic=0;labelBackgroundColor=none;strokeWidth=2;fontFamily=Verdana;fontSize=12;align=center;arcSize=50;" parent="1" vertex="1">
          <mxGeometry x="910" y="520" width="100" height="20" as="geometry" />
        </mxCell>
        <mxCell id="2c924340bb9dbf6c-13" value="&lt;span&gt;flavour&lt;/span&gt;" style="whiteSpace=wrap;html=1;rounded=1;shadow=1;comic=0;labelBackgroundColor=none;strokeWidth=2;fontFamily=Verdana;fontSize=12;align=center;arcSize=50;" parent="1" vertex="1">
          <mxGeometry x="980" y="470" width="100" height="20" as="geometry" />
        </mxCell>
        <mxCell id="2c924340bb9dbf6c-14" value="&lt;span&gt;nfs&lt;/span&gt;" style="whiteSpace=wrap;html=1;rounded=1;shadow=1;comic=0;labelBackgroundColor=none;strokeWidth=2;fontFamily=Verdana;fontSize=12;align=center;arcSize=50;" parent="1" vertex="1">
          <mxGeometry x="650" y="20" width="100" height="20" as="geometry" />
        </mxCell>
        <mxCell id="2c924340bb9dbf6c-16" value="&lt;span&gt;file format&lt;/span&gt;" style="whiteSpace=wrap;html=1;rounded=1;shadow=1;comic=0;labelBackgroundColor=none;strokeWidth=2;fontFamily=Verdana;fontSize=12;align=center;arcSize=50;" parent="1" vertex="1">
          <mxGeometry x="800" y="50" width="100" height="20" as="geometry" />
        </mxCell>
        <mxCell id="2c924340bb9dbf6c-17" value="storage type" style="whiteSpace=wrap;html=1;rounded=1;shadow=1;comic=0;labelBackgroundColor=none;strokeWidth=2;fontFamily=Verdana;fontSize=12;align=center;arcSize=50;" parent="1" vertex="1">
          <mxGeometry x="840" y="130" width="100" height="20" as="geometry" />
        </mxCell>
        <mxCell id="2c924340bb9dbf6c-18" value="&lt;span&gt;version_id&lt;/span&gt;" style="whiteSpace=wrap;html=1;rounded=1;shadow=1;comic=0;labelBackgroundColor=none;strokeWidth=2;fontFamily=Verdana;fontSize=12;align=center;arcSize=50;" parent="1" vertex="1">
          <mxGeometry x="840" y="200" width="100" height="20" as="geometry" />
        </mxCell>
        <mxCell id="2c924340bb9dbf6c-19" value="D_id" style="whiteSpace=wrap;html=1;rounded=1;shadow=1;comic=0;labelBackgroundColor=none;strokeWidth=2;fontFamily=Verdana;fontSize=12;align=center;arcSize=50;" parent="1" vertex="1">
          <mxGeometry x="700" y="220" width="100" height="20" as="geometry" />
        </mxCell>
        <mxCell id="2c924340bb9dbf6c-22" value="&lt;span&gt;M_id&lt;/span&gt;" style="whiteSpace=wrap;html=1;rounded=1;shadow=1;comic=0;labelBackgroundColor=none;strokeWidth=2;fontFamily=Verdana;fontSize=12;align=center;arcSize=50;" parent="1" vertex="1">
          <mxGeometry x="810" y="560" width="100" height="20" as="geometry" />
        </mxCell>
        <mxCell id="2c924340bb9dbf6c-23" value="End" style="whiteSpace=wrap;html=1;rounded=1;shadow=1;comic=0;labelBackgroundColor=none;strokeWidth=2;fontFamily=Verdana;fontSize=12;align=center;arcSize=50;" parent="1" vertex="1">
          <mxGeometry x="60" y="310" width="100" height="40" as="geometry" />
        </mxCell>
        <mxCell id="2c924340bb9dbf6c-24" value="desired output" style="rhombus;whiteSpace=wrap;html=1;rounded=0;shadow=1;comic=0;labelBackgroundColor=none;strokeWidth=2;fontFamily=Verdana;fontSize=12;align=center;" parent="1" vertex="1">
          <mxGeometry x="70" y="450" width="80" height="80" as="geometry" />
        </mxCell>
        <mxCell id="2c924340bb9dbf6c-25" value="A/b test" style="rounded=1;whiteSpace=wrap;html=1;shadow=1;comic=0;labelBackgroundColor=none;strokeWidth=2;fontFamily=Verdana;fontSize=12;align=center;" parent="1" vertex="1">
          <mxGeometry x="50" y="560" width="120" height="60" as="geometry" />
        </mxCell>
        <mxCell id="2c924340bb9dbf6c-26" value="Experiments run" style="rounded=1;whiteSpace=wrap;html=1;shadow=1;comic=0;labelBackgroundColor=none;strokeWidth=2;fontFamily=Verdana;fontSize=12;align=center;" parent="1" vertex="1">
          <mxGeometry x="280" y="570" width="120" height="60" as="geometry" />
        </mxCell>
        <mxCell id="2c924340bb9dbf6c-27" value="" style="edgeStyle=none;rounded=1;html=1;labelBackgroundColor=none;startArrow=none;startFill=0;startSize=5;endArrow=classicThin;endFill=1;endSize=5;jettySize=auto;orthogonalLoop=1;strokeColor=#B3B3B3;strokeWidth=1;fontFamily=Verdana;fontSize=12" parent="1" source="2c924340bb9dbf6c-2" target="2c924340bb9dbf6c-10" edge="1">
          <mxGeometry relative="1" as="geometry" />
        </mxCell>
        <mxCell id="2c924340bb9dbf6c-28" value="" style="edgeStyle=none;rounded=1;html=1;labelBackgroundColor=none;startArrow=none;startFill=0;startSize=5;endArrow=classicThin;endFill=1;endSize=5;jettySize=auto;orthogonalLoop=1;strokeColor=#B3B3B3;strokeWidth=1;fontFamily=Verdana;fontSize=12" parent="1" source="2c924340bb9dbf6c-2" target="2c924340bb9dbf6c-1" edge="1">
          <mxGeometry relative="1" as="geometry" />
        </mxCell>
        <mxCell id="2c924340bb9dbf6c-29" value="" style="edgeStyle=none;rounded=1;html=1;labelBackgroundColor=none;startArrow=none;startFill=0;startSize=5;endArrow=classicThin;endFill=1;endSize=5;jettySize=auto;orthogonalLoop=1;strokeColor=#B3B3B3;strokeWidth=1;fontFamily=Verdana;fontSize=12" parent="1" source="2c924340bb9dbf6c-2" target="2c924340bb9dbf6c-8" edge="1">
          <mxGeometry relative="1" as="geometry" />
        </mxCell>
        <mxCell id="2c924340bb9dbf6c-30" value="" style="edgeStyle=none;rounded=1;html=1;labelBackgroundColor=none;startArrow=none;startFill=0;startSize=5;endArrow=classicThin;endFill=1;endSize=5;jettySize=auto;orthogonalLoop=1;strokeColor=#B3B3B3;strokeWidth=1;fontFamily=Verdana;fontSize=12" parent="1" source="2c924340bb9dbf6c-2" target="2c924340bb9dbf6c-9" edge="1">
          <mxGeometry relative="1" as="geometry" />
        </mxCell>
        <mxCell id="2c924340bb9dbf6c-31" value="Creates" style="edgeStyle=none;rounded=1;html=1;labelBackgroundColor=none;startArrow=none;startFill=0;startSize=5;endArrow=classicThin;endFill=1;endSize=5;jettySize=auto;orthogonalLoop=1;strokeColor=#B3B3B3;strokeWidth=1;fontFamily=Verdana;fontSize=12" parent="1" source="2c924340bb9dbf6c-4" target="2c924340bb9dbf6c-2" edge="1">
          <mxGeometry relative="1" as="geometry" />
        </mxCell>
        <mxCell id="2c924340bb9dbf6c-32" value="Stores" style="edgeStyle=none;rounded=1;html=1;labelBackgroundColor=none;startArrow=none;startFill=0;startSize=5;endArrow=classicThin;endFill=1;endSize=5;jettySize=auto;orthogonalLoop=1;strokeColor=#B3B3B3;strokeWidth=1;fontFamily=Verdana;fontSize=12" parent="1" source="2c924340bb9dbf6c-4" target="2c924340bb9dbf6c-3" edge="1">
          <mxGeometry relative="1" as="geometry" />
        </mxCell>
        <mxCell id="2c924340bb9dbf6c-33" value="Build" style="edgeStyle=none;rounded=1;html=1;labelBackgroundColor=none;startArrow=none;startFill=0;startSize=5;endArrow=classicThin;endFill=1;endSize=5;jettySize=auto;orthogonalLoop=1;strokeColor=#B3B3B3;strokeWidth=1;fontFamily=Verdana;fontSize=12" parent="1" source="2c924340bb9dbf6c-4" target="2c924340bb9dbf6c-5" edge="1">
          <mxGeometry relative="1" as="geometry" />
        </mxCell>
        <mxCell id="2c924340bb9dbf6c-35" value="Build Success" style="edgeStyle=none;rounded=1;html=1;labelBackgroundColor=none;startArrow=none;startFill=0;startSize=5;endArrow=classicThin;endFill=1;endSize=5;jettySize=auto;orthogonalLoop=1;strokeColor=#B3B3B3;strokeWidth=1;fontFamily=Verdana;fontSize=12" parent="1" source="2c924340bb9dbf6c-5" target="2c924340bb9dbf6c-7" edge="1">
          <mxGeometry relative="1" as="geometry" />
        </mxCell>
        <mxCell id="2c924340bb9dbf6c-36" value="" style="edgeStyle=none;rounded=1;html=1;labelBackgroundColor=none;startArrow=none;startFill=0;startSize=5;endArrow=classicThin;endFill=1;endSize=5;jettySize=auto;orthogonalLoop=1;strokeColor=#B3B3B3;strokeWidth=1;fontFamily=Verdana;fontSize=12;exitX=1.01;exitY=0.611;exitDx=0;exitDy=0;exitPerimeter=0;" parent="1" source="2c924340bb9dbf6c-4" target="2c924340bb9dbf6c-6" edge="1">
          <mxGeometry relative="1" as="geometry" />
        </mxCell>
        <mxCell id="2c924340bb9dbf6c-37" value="" style="edgeStyle=none;rounded=1;html=1;labelBackgroundColor=none;startArrow=none;startFill=0;startSize=5;endArrow=classicThin;endFill=1;endSize=5;jettySize=auto;orthogonalLoop=1;strokeColor=#B3B3B3;strokeWidth=1;fontFamily=Verdana;fontSize=12" parent="1" source="2c924340bb9dbf6c-6" target="2c924340bb9dbf6c-13" edge="1">
          <mxGeometry relative="1" as="geometry" />
        </mxCell>
        <mxCell id="2c924340bb9dbf6c-38" value="" style="edgeStyle=none;rounded=1;html=1;labelBackgroundColor=none;startArrow=none;startFill=0;startSize=5;endArrow=classicThin;endFill=1;endSize=5;jettySize=auto;orthogonalLoop=1;strokeColor=#B3B3B3;strokeWidth=1;fontFamily=Verdana;fontSize=12" parent="1" source="2c924340bb9dbf6c-6" target="2c924340bb9dbf6c-12" edge="1">
          <mxGeometry relative="1" as="geometry" />
        </mxCell>
        <mxCell id="2c924340bb9dbf6c-39" value="" style="edgeStyle=none;rounded=1;html=1;labelBackgroundColor=none;startArrow=none;startFill=0;startSize=5;endArrow=classicThin;endFill=1;endSize=5;jettySize=auto;orthogonalLoop=1;strokeColor=#B3B3B3;strokeWidth=1;fontFamily=Verdana;fontSize=12" parent="1" source="2c924340bb9dbf6c-6" target="2c924340bb9dbf6c-22" edge="1">
          <mxGeometry relative="1" as="geometry" />
        </mxCell>
        <mxCell id="2c924340bb9dbf6c-40" value="" style="edgeStyle=none;rounded=1;html=1;labelBackgroundColor=none;startArrow=none;startFill=0;startSize=5;endArrow=classicThin;endFill=1;endSize=5;jettySize=auto;orthogonalLoop=1;strokeColor=#B3B3B3;strokeWidth=1;fontFamily=Verdana;fontSize=12" parent="1" source="2c924340bb9dbf6c-3" target="2c924340bb9dbf6c-19" edge="1">
          <mxGeometry relative="1" as="geometry" />
        </mxCell>
        <mxCell id="2c924340bb9dbf6c-41" value="" style="edgeStyle=none;rounded=1;html=1;labelBackgroundColor=none;startArrow=none;startFill=0;startSize=5;endArrow=classicThin;endFill=1;endSize=5;jettySize=auto;orthogonalLoop=1;strokeColor=#B3B3B3;strokeWidth=1;fontFamily=Verdana;fontSize=12" parent="1" source="2c924340bb9dbf6c-3" target="2c924340bb9dbf6c-18" edge="1">
          <mxGeometry relative="1" as="geometry" />
        </mxCell>
        <mxCell id="2c924340bb9dbf6c-42" value="" style="edgeStyle=none;rounded=1;html=1;labelBackgroundColor=none;startArrow=none;startFill=0;startSize=5;endArrow=classicThin;endFill=1;endSize=5;jettySize=auto;orthogonalLoop=1;strokeColor=#B3B3B3;strokeWidth=1;fontFamily=Verdana;fontSize=12" parent="1" source="2c924340bb9dbf6c-3" target="2c924340bb9dbf6c-17" edge="1">
          <mxGeometry relative="1" as="geometry" />
        </mxCell>
        <mxCell id="2c924340bb9dbf6c-43" value="" style="edgeStyle=none;rounded=1;html=1;labelBackgroundColor=none;startArrow=none;startFill=0;startSize=5;endArrow=classicThin;endFill=1;endSize=5;jettySize=auto;orthogonalLoop=1;strokeColor=#B3B3B3;strokeWidth=1;fontFamily=Verdana;fontSize=12" parent="1" source="2c924340bb9dbf6c-3" target="2c924340bb9dbf6c-16" edge="1">
          <mxGeometry relative="1" as="geometry" />
        </mxCell>
        <mxCell id="2c924340bb9dbf6c-45" value="" style="edgeStyle=none;rounded=1;html=1;labelBackgroundColor=none;startArrow=none;startFill=0;startSize=5;endArrow=classicThin;endFill=1;endSize=5;jettySize=auto;orthogonalLoop=1;strokeColor=#B3B3B3;strokeWidth=1;fontFamily=Verdana;fontSize=12" parent="1" source="2c924340bb9dbf6c-3" target="2c924340bb9dbf6c-14" edge="1">
          <mxGeometry relative="1" as="geometry" />
        </mxCell>
        <mxCell id="2c924340bb9dbf6c-46" value="" style="edgeStyle=none;rounded=1;html=1;labelBackgroundColor=none;startArrow=none;startFill=0;startSize=5;endArrow=classicThin;endFill=1;endSize=5;jettySize=auto;orthogonalLoop=1;strokeColor=#B3B3B3;strokeWidth=1;fontFamily=Verdana;fontSize=12" parent="1" source="2c924340bb9dbf6c-3" target="2c924340bb9dbf6c-11" edge="1">
          <mxGeometry relative="1" as="geometry" />
        </mxCell>
        <mxCell id="2c924340bb9dbf6c-47" value="Deploy success" style="edgeStyle=none;rounded=1;html=1;labelBackgroundColor=none;startArrow=none;startFill=0;startSize=5;endArrow=classicThin;endFill=1;endSize=5;jettySize=auto;orthogonalLoop=1;strokeColor=#B3B3B3;strokeWidth=1;fontFamily=Verdana;fontSize=12" parent="1" source="2c924340bb9dbf6c-7" target="2c924340bb9dbf6c-26" edge="1">
          <mxGeometry relative="1" as="geometry" />
        </mxCell>
        <mxCell id="2c924340bb9dbf6c-48" value="relation" style="edgeStyle=none;rounded=1;html=1;labelBackgroundColor=none;startArrow=none;startFill=0;startSize=5;endArrow=classicThin;endFill=1;endSize=5;jettySize=auto;orthogonalLoop=1;strokeColor=#B3B3B3;strokeWidth=1;fontFamily=Verdana;fontSize=12" parent="1" source="2c924340bb9dbf6c-26" target="2c924340bb9dbf6c-25" edge="1">
          <mxGeometry relative="1" as="geometry" />
        </mxCell>
        <mxCell id="2c924340bb9dbf6c-49" value="relation" style="edgeStyle=none;rounded=1;html=1;labelBackgroundColor=none;startArrow=none;startFill=0;startSize=5;endArrow=classicThin;endFill=1;endSize=5;jettySize=auto;orthogonalLoop=1;strokeColor=#B3B3B3;strokeWidth=1;fontFamily=Verdana;fontSize=12" parent="1" source="2c924340bb9dbf6c-25" target="2c924340bb9dbf6c-24" edge="1">
          <mxGeometry relative="1" as="geometry" />
        </mxCell>
        <mxCell id="2c924340bb9dbf6c-50" value="Yes" style="edgeStyle=none;rounded=1;html=1;labelBackgroundColor=none;startArrow=none;startFill=0;startSize=5;endArrow=classicThin;endFill=1;endSize=5;jettySize=auto;orthogonalLoop=1;strokeColor=#B3B3B3;strokeWidth=1;fontFamily=Verdana;fontSize=12" parent="1" source="2c924340bb9dbf6c-24" target="2c924340bb9dbf6c-23" edge="1">
          <mxGeometry x="-0.7935" y="10" relative="1" as="geometry">
            <mxPoint as="offset" />
          </mxGeometry>
        </mxCell>
        <mxCell id="2c924340bb9dbf6c-55" value="&lt;span&gt;P_id&lt;/span&gt;" style="whiteSpace=wrap;html=1;rounded=1;shadow=1;comic=0;labelBackgroundColor=none;strokeWidth=2;fontFamily=Verdana;fontSize=12;align=center;arcSize=50;" parent="1" vertex="1">
          <mxGeometry x="440" y="180" width="100" height="20" as="geometry" />
        </mxCell>
        <mxCell id="2c924340bb9dbf6c-56" value="&lt;span&gt;add teams&amp;nbsp;&lt;/span&gt;" style="whiteSpace=wrap;html=1;rounded=1;shadow=1;comic=0;labelBackgroundColor=none;strokeWidth=2;fontFamily=Verdana;fontSize=12;align=center;arcSize=50;" parent="1" vertex="1">
          <mxGeometry x="270" y="240" width="100" height="20" as="geometry" />
        </mxCell>
        <mxCell id="2c924340bb9dbf6c-58" value="&lt;span&gt;Build Id&lt;/span&gt;" style="whiteSpace=wrap;html=1;rounded=1;shadow=1;comic=0;labelBackgroundColor=none;strokeWidth=2;fontFamily=Verdana;fontSize=12;align=center;arcSize=50;" parent="1" vertex="1">
          <mxGeometry x="620" y="570" width="100" height="20" as="geometry" />
        </mxCell>
        <mxCell id="2c924340bb9dbf6c-59" value="&lt;span&gt;Deploy Id&lt;/span&gt;" style="whiteSpace=wrap;html=1;rounded=1;shadow=1;comic=0;labelBackgroundColor=none;strokeWidth=2;fontFamily=Verdana;fontSize=12;align=center;arcSize=50;" parent="1" vertex="1">
          <mxGeometry x="430" y="610" width="100" height="20" as="geometry" />
        </mxCell>
        <mxCell id="2c924340bb9dbf6c-61" value="" style="edgeStyle=none;rounded=1;html=1;labelBackgroundColor=none;startArrow=none;startFill=0;startSize=5;endArrow=classicThin;endFill=1;endSize=5;jettySize=auto;orthogonalLoop=1;strokeColor=#B3B3B3;strokeWidth=1;fontFamily=Verdana;fontSize=12" parent="1" source="2c924340bb9dbf6c-2" target="2c924340bb9dbf6c-55" edge="1">
          <mxGeometry relative="1" as="geometry" />
        </mxCell>
        <mxCell id="2c924340bb9dbf6c-62" value="" style="edgeStyle=none;rounded=1;html=1;labelBackgroundColor=none;startArrow=none;startFill=0;startSize=5;endArrow=classicThin;endFill=1;endSize=5;jettySize=auto;orthogonalLoop=1;strokeColor=#B3B3B3;strokeWidth=1;fontFamily=Verdana;fontSize=12" parent="1" source="2c924340bb9dbf6c-2" target="2c924340bb9dbf6c-56" edge="1">
          <mxGeometry relative="1" as="geometry" />
        </mxCell>
        <mxCell id="2c924340bb9dbf6c-67" value="&lt;span&gt;Kubeflow Pipeline&lt;/span&gt;" style="ellipse;whiteSpace=wrap;html=1;rounded=1;shadow=1;comic=0;labelBackgroundColor=none;strokeWidth=2;fontFamily=Verdana;fontSize=12;align=center;" parent="1" vertex="1">
          <mxGeometry x="190" y="450" width="120" height="80" as="geometry" />
        </mxCell>
        <mxCell id="2c924340bb9dbf6c-68" value="&lt;span&gt;Exp3&lt;/span&gt;" style="whiteSpace=wrap;html=1;rounded=1;shadow=1;comic=0;labelBackgroundColor=none;strokeWidth=2;fontFamily=Verdana;fontSize=12;align=center;arcSize=50;" parent="1" vertex="1">
          <mxGeometry x="310" y="360" width="100" height="20" as="geometry" />
        </mxCell>
        <mxCell id="2c924340bb9dbf6c-69" value="Exp2" style="whiteSpace=wrap;html=1;rounded=1;shadow=1;comic=0;labelBackgroundColor=none;strokeWidth=2;fontFamily=Verdana;fontSize=12;align=center;arcSize=50;" parent="1" vertex="1">
          <mxGeometry x="250" y="330" width="100" height="20" as="geometry" />
        </mxCell>
        <mxCell id="2c924340bb9dbf6c-70" value="&lt;span&gt;Exp1&lt;/span&gt;" style="whiteSpace=wrap;html=1;rounded=1;shadow=1;comic=0;labelBackgroundColor=none;strokeWidth=2;fontFamily=Verdana;fontSize=12;align=center;arcSize=50;" parent="1" vertex="1">
          <mxGeometry x="160" y="370" width="100" height="20" as="geometry" />
        </mxCell>
        <mxCell id="2c924340bb9dbf6c-72" value="Run" style="edgeStyle=none;rounded=1;html=1;labelBackgroundColor=none;startArrow=none;startFill=0;startSize=5;endArrow=classicThin;endFill=1;endSize=5;jettySize=auto;orthogonalLoop=1;strokeColor=#B3B3B3;strokeWidth=1;fontFamily=Verdana;fontSize=12" parent="1" source="2c924340bb9dbf6c-67" target="2c924340bb9dbf6c-70" edge="1">
          <mxGeometry relative="1" as="geometry" />
        </mxCell>
        <mxCell id="2c924340bb9dbf6c-73" value="Run" style="edgeStyle=none;rounded=1;html=1;labelBackgroundColor=none;startArrow=none;startFill=0;startSize=5;endArrow=classicThin;endFill=1;endSize=5;jettySize=auto;orthogonalLoop=1;strokeColor=#B3B3B3;strokeWidth=1;fontFamily=Verdana;fontSize=12" parent="1" source="2c924340bb9dbf6c-67" target="2c924340bb9dbf6c-69" edge="1">
          <mxGeometry relative="1" as="geometry" />
        </mxCell>
        <mxCell id="2c924340bb9dbf6c-74" value="Run" style="edgeStyle=none;rounded=1;html=1;labelBackgroundColor=none;startArrow=none;startFill=0;startSize=5;endArrow=classicThin;endFill=1;endSize=5;jettySize=auto;orthogonalLoop=1;strokeColor=#B3B3B3;strokeWidth=1;fontFamily=Verdana;fontSize=12" parent="1" source="2c924340bb9dbf6c-67" target="2c924340bb9dbf6c-68" edge="1">
          <mxGeometry relative="1" as="geometry" />
        </mxCell>
        <mxCell id="2c924340bb9dbf6c-75" value="No" style="edgeStyle=none;rounded=1;html=1;labelBackgroundColor=none;startArrow=none;startFill=0;startSize=5;endArrow=classicThin;endFill=1;endSize=5;jettySize=auto;orthogonalLoop=1;strokeColor=#B3B3B3;strokeWidth=1;fontFamily=Verdana;fontSize=12" parent="1" source="2c924340bb9dbf6c-24" target="2c924340bb9dbf6c-67" edge="1">
          <mxGeometry x="-0.504" y="20" relative="1" as="geometry">
            <mxPoint as="offset" />
          </mxGeometry>
        </mxCell>
        <mxCell id="2c924340bb9dbf6c-76" value="Deploy" style="edgeStyle=none;rounded=1;html=1;labelBackgroundColor=none;startArrow=none;startFill=0;startSize=5;endArrow=classicThin;endFill=1;endSize=5;jettySize=auto;orthogonalLoop=1;strokeColor=#B3B3B3;strokeWidth=1;fontFamily=Verdana;fontSize=12;entryX=0.667;entryY=0;entryDx=0;entryDy=0;entryPerimeter=0;" parent="1" source="2c924340bb9dbf6c-4" target="2c924340bb9dbf6c-7" edge="1">
          <mxGeometry relative="1" as="geometry">
            <mxPoint x="472.3809523809523" y="415" as="targetPoint" />
          </mxGeometry>
        </mxCell>
        <mxCell id="2c924340bb9dbf6c-77" value="" style="edgeStyle=none;rounded=1;html=1;labelBackgroundColor=none;startArrow=none;startFill=0;startSize=5;endArrow=classicThin;endFill=1;endSize=5;jettySize=auto;orthogonalLoop=1;strokeColor=#B3B3B3;strokeWidth=1;fontFamily=Verdana;fontSize=12" parent="1" source="2c924340bb9dbf6c-5" target="2c924340bb9dbf6c-58" edge="1">
          <mxGeometry relative="1" as="geometry" />
        </mxCell>
        <mxCell id="2c924340bb9dbf6c-78" value="" style="edgeStyle=none;rounded=1;html=1;labelBackgroundColor=none;startArrow=none;startFill=0;startSize=5;endArrow=classicThin;endFill=1;endSize=5;jettySize=auto;orthogonalLoop=1;strokeColor=#B3B3B3;strokeWidth=1;fontFamily=Verdana;fontSize=12" parent="1" source="2c924340bb9dbf6c-7" target="2c924340bb9dbf6c-59" edge="1">
          <mxGeometry relative="1" as="geometry" />
        </mxCell>
        <mxCell id="qeZPOduTdNG3uun5B5Nu-1" value="&lt;span&gt;Deploy Id&lt;/span&gt;" style="whiteSpace=wrap;html=1;rounded=1;shadow=1;comic=0;labelBackgroundColor=none;strokeWidth=2;fontFamily=Verdana;fontSize=12;align=center;arcSize=50;" vertex="1" parent="1">
          <mxGeometry x="510" y="640" width="100" height="20" as="geometry" />
        </mxCell>
        <mxCell id="qeZPOduTdNG3uun5B5Nu-2" value="" style="edgeStyle=none;rounded=1;html=1;labelBackgroundColor=none;startArrow=none;startFill=0;startSize=5;endArrow=classicThin;endFill=1;endSize=5;jettySize=auto;orthogonalLoop=1;strokeColor=#B3B3B3;strokeWidth=1;fontFamily=Verdana;fontSize=12;exitX=0.615;exitY=0.994;exitDx=0;exitDy=0;exitPerimeter=0;entryX=0.5;entryY=0;entryDx=0;entryDy=0;" edge="1" parent="1" source="2c924340bb9dbf6c-7" target="qeZPOduTdNG3uun5B5Nu-1">
          <mxGeometry relative="1" as="geometry">
            <mxPoint x="502.07017679454225" y="569.6491160272897" as="sourcePoint" />
            <mxPoint x="492" y="620.0000000000001" as="targetPoint" />
          </mxGeometry>
        </mxCell>
        <mxCell id="qeZPOduTdNG3uun5B5Nu-3" value="Image_name" style="whiteSpace=wrap;html=1;rounded=1;shadow=1;comic=0;labelBackgroundColor=none;strokeWidth=2;fontFamily=Verdana;fontSize=12;align=center;arcSize=50;" vertex="1" parent="1">
          <mxGeometry x="690" y="600" width="100" height="20" as="geometry" />
        </mxCell>
        <mxCell id="qeZPOduTdNG3uun5B5Nu-4" value="" style="edgeStyle=none;rounded=1;html=1;labelBackgroundColor=none;startArrow=none;startFill=0;startSize=5;endArrow=classicThin;endFill=1;endSize=5;jettySize=auto;orthogonalLoop=1;strokeColor=#B3B3B3;strokeWidth=1;fontFamily=Verdana;fontSize=12;entryX=0.75;entryY=0;entryDx=0;entryDy=0;exitX=0.668;exitY=1.006;exitDx=0;exitDy=0;exitPerimeter=0;" edge="1" parent="1" source="2c924340bb9dbf6c-5" target="qeZPOduTdNG3uun5B5Nu-3">
          <mxGeometry relative="1" as="geometry">
            <mxPoint x="693.4976430329027" y="509.76441376032597" as="sourcePoint" />
            <mxPoint x="682" y="580" as="targetPoint" />
          </mxGeometry>
        </mxCell>
        <mxCell id="qeZPOduTdNG3uun5B5Nu-5" value="" style="edgeStyle=none;rounded=1;html=1;labelBackgroundColor=none;startArrow=none;startFill=0;startSize=5;endArrow=classicThin;endFill=1;endSize=5;jettySize=auto;orthogonalLoop=1;strokeColor=#B3B3B3;strokeWidth=1;fontFamily=Verdana;fontSize=12;entryX=0;entryY=0.5;entryDx=0;entryDy=0;exitX=0.934;exitY=1.127;exitDx=0;exitDy=0;exitPerimeter=0;" edge="1" parent="1" source="2c924340bb9dbf6c-10" target="2c924340bb9dbf6c-3">
          <mxGeometry relative="1" as="geometry">
            <mxPoint x="348.8647959169482" y="122.0285518081941" as="sourcePoint" />
            <mxPoint x="375" y="70" as="targetPoint" />
          </mxGeometry>
        </mxCell>
      </root>
    </mxGraphModel>
  </diagram>
</mxfile>
